<svg width="27" height="30" viewBox="0 0 27 30" fill="none" xmlns="http://www.w3.org/2000/svg">
<path fill-rule="evenodd" clip-rule="evenodd" d="M19.5 17.9C21.4327 17.9001 23.2907 18.6214 24.6867 19.9136C26.0826 21.2057 26.9086 22.9688 26.9925 24.8354L27 25.15V26.6C27.0002 27.3316 26.7144 28.0363 26.1998 28.5728C25.6851 29.1093 24.9797 29.4379 24.225 29.4928L24 29.5H3C2.24314 29.5002 1.51415 29.2239 0.959178 28.7264C0.404206 28.2289 0.064265 27.5471 0.00750017 26.8175L0 26.6V25.15C0.000111664 23.2817 0.746312 21.4856 2.08299 20.1362C3.41967 18.7868 5.24363 17.9883 7.1745 17.9072L7.5 17.9H19.5ZM19.5 20.8H7.5C6.35218 20.7999 5.24773 21.2239 4.41261 21.9851C3.57749 22.7463 3.07484 23.7872 3.0075 24.8948L3 25.15V26.6H24V25.15C24.0001 24.0404 23.5615 22.9728 22.7741 22.1655C21.9866 21.3582 20.9098 20.8723 19.764 20.8072L19.5 20.8ZM13.5 0.5C15.4891 0.5 17.3968 1.26384 18.8033 2.62348C20.2098 3.98311 21 5.82718 21 7.75C21 9.67282 20.2098 11.5169 18.8033 12.8765C17.3968 14.2362 15.4891 15 13.5 15C11.5109 15 9.60322 14.2362 8.1967 12.8765C6.79018 11.5169 6 9.67282 6 7.75C6 5.82718 6.79018 3.98311 8.1967 2.62348C9.60322 1.26384 11.5109 0.5 13.5 0.5ZM13.5 3.4C12.9091 3.4 12.3239 3.51252 11.7779 3.73112C11.232 3.94973 10.7359 4.27015 10.318 4.67409C9.90016 5.07802 9.56869 5.55756 9.34254 6.08533C9.11639 6.61309 9 7.17875 9 7.75C9 8.32125 9.11639 8.88691 9.34254 9.41467C9.56869 9.94244 9.90016 10.422 10.318 10.8259C10.7359 11.2298 11.232 11.5503 11.7779 11.7689C12.3239 11.9875 12.9091 12.1 13.5 12.1C14.6935 12.1 15.8381 11.6417 16.682 10.8259C17.5259 10.0101 18 8.90369 18 7.75C18 6.59631 17.5259 5.48987 16.682 4.67409C15.8381 3.8583 14.6935 3.4 13.5 3.4Z" fill="white"/>
</svg>
