<svg width="24" height="28" viewBox="0 0 24 28" fill="none" xmlns="http://www.w3.org/2000/svg">
<path d="M7.19975 22.3127C5.8798 22.3127 4.81184 23.5597 4.81184 25.0837C4.81184 26.6078 5.8798 27.8548 7.19975 27.8548C8.51971 27.8548 9.59967 26.6078 9.59967 25.0837C9.59967 23.5597 8.51971 22.3127 7.19975 22.3127ZM0 0.144531V2.91556H2.39992L6.71977 13.4316L5.09982 16.8261C4.90783 17.214 4.79984 17.6713 4.79984 18.1562C4.79984 19.6803 5.8798 20.9272 7.19975 20.9272H21.5993V18.1562H7.70374C7.53574 18.1562 7.40375 18.0038 7.40375 17.8098L7.43974 17.6435L8.51971 15.3852H17.4594C18.3594 15.3852 19.1513 14.8171 19.5593 13.9581L23.8552 4.96611C23.9542 4.75467 24.004 4.51718 23.9997 4.27686C23.9955 4.03654 23.9373 3.8016 23.8309 3.595C23.7245 3.38839 23.5736 3.21718 23.3927 3.09809C23.2119 2.979 23.0074 2.91611 22.7992 2.91556H5.05183L3.92387 0.144531H0ZM19.1993 22.3127C17.8794 22.3127 16.8114 23.5597 16.8114 25.0837C16.8114 26.6078 17.8794 27.8548 19.1993 27.8548C20.5193 27.8548 21.5993 26.6078 21.5993 25.0837C21.5993 23.5597 20.5193 22.3127 19.1993 22.3127Z" fill="white"/>
</svg>
