<svg width="34" height="34" viewBox="0 0 34 34" fill="none" xmlns="http://www.w3.org/2000/svg">
<path d="M32 32L24.7618 24.7618M24.7618 24.7618C25.9999 23.5236 26.982 22.0537 27.6521 20.436C28.3222 18.8183 28.6671 17.0845 28.6671 15.3335C28.6671 13.5825 28.3222 11.8487 27.6521 10.231C26.982 8.61331 25.9999 7.14343 24.7618 5.9053C23.5236 4.66717 22.0537 3.68503 20.436 3.01495C18.8183 2.34488 17.0845 2 15.3335 2C13.5825 2 11.8487 2.34488 10.231 3.01495C8.61331 3.68503 7.14343 4.66717 5.9053 5.9053C3.40478 8.40582 2 11.7973 2 15.3335C2 18.8698 3.40478 22.2612 5.9053 24.7618C8.40582 27.2623 11.7973 28.6671 15.3335 28.6671C18.8698 28.6671 22.2612 27.2623 24.7618 24.7618Z" stroke="white" stroke-width="3" stroke-linecap="round" stroke-linejoin="round"/>
</svg>
